<mxfile host="app.diagrams.net" agent="Mozilla/5.0 (Windows NT 10.0; Win64; x64) AppleWebKit/537.36 (KHTML, like Gecko) Chrome/130.0.0.0 Safari/537.36" version="24.8.3">
  <diagram id="C5RBs43oDa-KdzZeNtuy" name="Page-1">
    <mxGraphModel dx="596" dy="336" grid="0" gridSize="10" guides="1" tooltips="1" connect="1" arrows="1" fold="1" page="1" pageScale="1" pageWidth="827" pageHeight="1169" math="0" shadow="0">
      <root>
        <mxCell id="WIyWlLk6GJQsqaUBKTNV-0" />
        <mxCell id="WIyWlLk6GJQsqaUBKTNV-1" parent="WIyWlLk6GJQsqaUBKTNV-0" />
        <mxCell id="WIyWlLk6GJQsqaUBKTNV-2" value="" style="rounded=0;html=1;jettySize=auto;orthogonalLoop=1;fontSize=11;endArrow=classic;endFill=1;endSize=8;strokeWidth=1;shadow=0;labelBackgroundColor=none;edgeStyle=orthogonalEdgeStyle;" parent="WIyWlLk6GJQsqaUBKTNV-1" source="WIyWlLk6GJQsqaUBKTNV-3" target="WIyWlLk6GJQsqaUBKTNV-6" edge="1">
          <mxGeometry relative="1" as="geometry" />
        </mxCell>
        <mxCell id="WIyWlLk6GJQsqaUBKTNV-3" value="开始检查服务器状态" style="rounded=1;whiteSpace=wrap;html=1;fontSize=12;glass=0;strokeWidth=1;shadow=0;" parent="WIyWlLk6GJQsqaUBKTNV-1" vertex="1">
          <mxGeometry x="353.5" y="37" width="120" height="40" as="geometry" />
        </mxCell>
        <mxCell id="soUWdF_z0Q9_2DttLMhe-2" style="edgeStyle=orthogonalEdgeStyle;rounded=0;orthogonalLoop=1;jettySize=auto;html=1;entryX=0.5;entryY=0;entryDx=0;entryDy=0;" edge="1" parent="WIyWlLk6GJQsqaUBKTNV-1" source="WIyWlLk6GJQsqaUBKTNV-6" target="soUWdF_z0Q9_2DttLMhe-1">
          <mxGeometry relative="1" as="geometry" />
        </mxCell>
        <mxCell id="soUWdF_z0Q9_2DttLMhe-10" style="edgeStyle=orthogonalEdgeStyle;rounded=0;orthogonalLoop=1;jettySize=auto;html=1;entryX=0.5;entryY=0;entryDx=0;entryDy=0;" edge="1" parent="WIyWlLk6GJQsqaUBKTNV-1" source="WIyWlLk6GJQsqaUBKTNV-6" target="soUWdF_z0Q9_2DttLMhe-7">
          <mxGeometry relative="1" as="geometry">
            <Array as="points">
              <mxPoint x="517" y="160" />
            </Array>
          </mxGeometry>
        </mxCell>
        <mxCell id="soUWdF_z0Q9_2DttLMhe-11" value="N" style="edgeLabel;html=1;align=center;verticalAlign=middle;resizable=0;points=[];" vertex="1" connectable="0" parent="soUWdF_z0Q9_2DttLMhe-10">
          <mxGeometry x="-0.7433" relative="1" as="geometry">
            <mxPoint x="6" y="-8" as="offset" />
          </mxGeometry>
        </mxCell>
        <mxCell id="WIyWlLk6GJQsqaUBKTNV-6" value="是否存在周期性波动（不规则延迟或卡顿）" style="rhombus;whiteSpace=wrap;html=1;shadow=0;fontFamily=Helvetica;fontSize=12;align=center;strokeWidth=1;spacing=6;spacingTop=-4;" parent="WIyWlLk6GJQsqaUBKTNV-1" vertex="1">
          <mxGeometry x="352" y="126" width="123" height="70" as="geometry" />
        </mxCell>
        <mxCell id="soUWdF_z0Q9_2DttLMhe-13" style="edgeStyle=orthogonalEdgeStyle;rounded=0;orthogonalLoop=1;jettySize=auto;html=1;entryX=0.5;entryY=0;entryDx=0;entryDy=0;" edge="1" parent="WIyWlLk6GJQsqaUBKTNV-1" source="soUWdF_z0Q9_2DttLMhe-1" target="soUWdF_z0Q9_2DttLMhe-12">
          <mxGeometry relative="1" as="geometry" />
        </mxCell>
        <mxCell id="soUWdF_z0Q9_2DttLMhe-1" value="加缓存，更改缓存策略" style="rounded=1;whiteSpace=wrap;html=1;fontSize=12;glass=0;strokeWidth=1;shadow=0;" vertex="1" parent="WIyWlLk6GJQsqaUBKTNV-1">
          <mxGeometry x="212" y="190" width="120" height="40" as="geometry" />
        </mxCell>
        <mxCell id="soUWdF_z0Q9_2DttLMhe-3" value="Y" style="text;html=1;align=center;verticalAlign=middle;resizable=0;points=[];autosize=1;strokeColor=none;fillColor=none;" vertex="1" parent="WIyWlLk6GJQsqaUBKTNV-1">
          <mxGeometry x="300" y="139" width="26" height="26" as="geometry" />
        </mxCell>
        <mxCell id="soUWdF_z0Q9_2DttLMhe-4" value="&lt;font color=&quot;#ff0000&quot;&gt;如双十一等重要时间节点&lt;/font&gt;" style="text;html=1;align=center;verticalAlign=middle;resizable=0;points=[];autosize=1;strokeColor=none;fillColor=none;" vertex="1" parent="WIyWlLk6GJQsqaUBKTNV-1">
          <mxGeometry x="457" y="109" width="150" height="26" as="geometry" />
        </mxCell>
        <mxCell id="soUWdF_z0Q9_2DttLMhe-5" value="&lt;font color=&quot;#ff0000&quot;&gt;如对频繁需要访问的热点数据添加缓存&lt;/font&gt;" style="text;html=1;align=center;verticalAlign=middle;resizable=0;points=[];autosize=1;strokeColor=none;fillColor=none;" vertex="1" parent="WIyWlLk6GJQsqaUBKTNV-1">
          <mxGeometry x="25" y="154" width="222" height="26" as="geometry" />
        </mxCell>
        <mxCell id="soUWdF_z0Q9_2DttLMhe-20" style="edgeStyle=orthogonalEdgeStyle;rounded=0;orthogonalLoop=1;jettySize=auto;html=1;" edge="1" parent="WIyWlLk6GJQsqaUBKTNV-1" source="soUWdF_z0Q9_2DttLMhe-7" target="soUWdF_z0Q9_2DttLMhe-19">
          <mxGeometry relative="1" as="geometry" />
        </mxCell>
        <mxCell id="soUWdF_z0Q9_2DttLMhe-7" value="开启慢查询" style="rounded=1;whiteSpace=wrap;html=1;fontSize=12;glass=0;strokeWidth=1;shadow=0;" vertex="1" parent="WIyWlLk6GJQsqaUBKTNV-1">
          <mxGeometry x="457" y="271" width="120" height="40" as="geometry" />
        </mxCell>
        <mxCell id="soUWdF_z0Q9_2DttLMhe-15" style="edgeStyle=orthogonalEdgeStyle;rounded=0;orthogonalLoop=1;jettySize=auto;html=1;" edge="1" parent="WIyWlLk6GJQsqaUBKTNV-1" source="soUWdF_z0Q9_2DttLMhe-12" target="soUWdF_z0Q9_2DttLMhe-14">
          <mxGeometry relative="1" as="geometry">
            <Array as="points">
              <mxPoint x="168" y="292" />
              <mxPoint x="168" y="292" />
            </Array>
          </mxGeometry>
        </mxCell>
        <mxCell id="soUWdF_z0Q9_2DttLMhe-16" value="Y" style="edgeLabel;html=1;align=center;verticalAlign=middle;resizable=0;points=[];" vertex="1" connectable="0" parent="soUWdF_z0Q9_2DttLMhe-15">
          <mxGeometry x="0.0166" relative="1" as="geometry">
            <mxPoint y="-8" as="offset" />
          </mxGeometry>
        </mxCell>
        <mxCell id="soUWdF_z0Q9_2DttLMhe-17" style="edgeStyle=orthogonalEdgeStyle;rounded=0;orthogonalLoop=1;jettySize=auto;html=1;entryX=0;entryY=0.5;entryDx=0;entryDy=0;" edge="1" parent="WIyWlLk6GJQsqaUBKTNV-1" source="soUWdF_z0Q9_2DttLMhe-12" target="soUWdF_z0Q9_2DttLMhe-7">
          <mxGeometry relative="1" as="geometry" />
        </mxCell>
        <mxCell id="soUWdF_z0Q9_2DttLMhe-18" value="N" style="edgeLabel;html=1;align=center;verticalAlign=middle;resizable=0;points=[];" vertex="1" connectable="0" parent="soUWdF_z0Q9_2DttLMhe-17">
          <mxGeometry x="-0.0772" y="-1" relative="1" as="geometry">
            <mxPoint y="-9" as="offset" />
          </mxGeometry>
        </mxCell>
        <mxCell id="soUWdF_z0Q9_2DttLMhe-12" value="是否解决" style="rhombus;whiteSpace=wrap;html=1;shadow=0;fontFamily=Helvetica;fontSize=12;align=center;strokeWidth=1;spacing=6;spacingTop=-4;" vertex="1" parent="WIyWlLk6GJQsqaUBKTNV-1">
          <mxGeometry x="210.5" y="256" width="123" height="70" as="geometry" />
        </mxCell>
        <mxCell id="soUWdF_z0Q9_2DttLMhe-14" value="结束" style="rounded=1;whiteSpace=wrap;html=1;fontSize=12;glass=0;strokeWidth=1;shadow=0;" vertex="1" parent="WIyWlLk6GJQsqaUBKTNV-1">
          <mxGeometry x="79" y="274" width="71" height="34" as="geometry" />
        </mxCell>
        <mxCell id="soUWdF_z0Q9_2DttLMhe-23" style="edgeStyle=orthogonalEdgeStyle;rounded=0;orthogonalLoop=1;jettySize=auto;html=1;entryX=0.5;entryY=0;entryDx=0;entryDy=0;" edge="1" parent="WIyWlLk6GJQsqaUBKTNV-1" source="soUWdF_z0Q9_2DttLMhe-19" target="soUWdF_z0Q9_2DttLMhe-22">
          <mxGeometry relative="1" as="geometry" />
        </mxCell>
        <mxCell id="soUWdF_z0Q9_2DttLMhe-35" style="edgeStyle=orthogonalEdgeStyle;rounded=0;orthogonalLoop=1;jettySize=auto;html=1;entryX=1;entryY=0.5;entryDx=0;entryDy=0;" edge="1" parent="WIyWlLk6GJQsqaUBKTNV-1" source="soUWdF_z0Q9_2DttLMhe-19" target="soUWdF_z0Q9_2DttLMhe-34">
          <mxGeometry relative="1" as="geometry">
            <Array as="points">
              <mxPoint x="599" y="386" />
              <mxPoint x="599" y="579" />
            </Array>
          </mxGeometry>
        </mxCell>
        <mxCell id="soUWdF_z0Q9_2DttLMhe-19" value="&lt;p&gt;&lt;span style=&quot;color: rgb(36, 41, 47); white-space-collapse: preserve; background-color: rgb(244, 246, 248);&quot;&gt;&lt;font style=&quot;font-size: 9px;&quot; face=&quot;Helvetica&quot;&gt;查询的性能统计信息（EXPLAIN SHOW PROFILING）&lt;/font&gt;&lt;/span&gt;&lt;/p&gt;" style="rounded=1;whiteSpace=wrap;html=1;fontSize=12;glass=0;strokeWidth=1;shadow=0;strokeColor=default;fillColor=default;align=center;" vertex="1" parent="WIyWlLk6GJQsqaUBKTNV-1">
          <mxGeometry x="457" y="360" width="120" height="52" as="geometry" />
        </mxCell>
        <mxCell id="soUWdF_z0Q9_2DttLMhe-25" style="edgeStyle=orthogonalEdgeStyle;rounded=0;orthogonalLoop=1;jettySize=auto;html=1;entryX=1;entryY=0.5;entryDx=0;entryDy=0;" edge="1" parent="WIyWlLk6GJQsqaUBKTNV-1" source="soUWdF_z0Q9_2DttLMhe-22" target="soUWdF_z0Q9_2DttLMhe-24">
          <mxGeometry relative="1" as="geometry" />
        </mxCell>
        <mxCell id="soUWdF_z0Q9_2DttLMhe-26" value="Y" style="edgeLabel;html=1;align=center;verticalAlign=middle;resizable=0;points=[];" vertex="1" connectable="0" parent="soUWdF_z0Q9_2DttLMhe-25">
          <mxGeometry x="-0.301" y="-3" relative="1" as="geometry">
            <mxPoint x="-3" y="-5" as="offset" />
          </mxGeometry>
        </mxCell>
        <mxCell id="soUWdF_z0Q9_2DttLMhe-22" value="SQL等待时间长" style="rhombus;whiteSpace=wrap;html=1;shadow=0;fontFamily=Helvetica;fontSize=12;align=center;strokeWidth=1;spacing=6;spacingTop=-4;" vertex="1" parent="WIyWlLk6GJQsqaUBKTNV-1">
          <mxGeometry x="455.5" y="440" width="123" height="70" as="geometry" />
        </mxCell>
        <mxCell id="soUWdF_z0Q9_2DttLMhe-31" style="edgeStyle=orthogonalEdgeStyle;rounded=0;orthogonalLoop=1;jettySize=auto;html=1;entryX=1;entryY=0.5;entryDx=0;entryDy=0;" edge="1" parent="WIyWlLk6GJQsqaUBKTNV-1" source="soUWdF_z0Q9_2DttLMhe-24" target="soUWdF_z0Q9_2DttLMhe-30">
          <mxGeometry relative="1" as="geometry" />
        </mxCell>
        <mxCell id="soUWdF_z0Q9_2DttLMhe-24" value="调优服务器参数" style="rounded=1;whiteSpace=wrap;html=1;fontSize=12;glass=0;strokeWidth=1;shadow=0;" vertex="1" parent="WIyWlLk6GJQsqaUBKTNV-1">
          <mxGeometry x="294" y="455" width="120" height="40" as="geometry" />
        </mxCell>
        <mxCell id="soUWdF_z0Q9_2DttLMhe-27" value="结束" style="rounded=1;whiteSpace=wrap;html=1;fontSize=12;glass=0;strokeWidth=1;shadow=0;" vertex="1" parent="WIyWlLk6GJQsqaUBKTNV-1">
          <mxGeometry x="22" y="453" width="71" height="34" as="geometry" />
        </mxCell>
        <mxCell id="soUWdF_z0Q9_2DttLMhe-47" style="edgeStyle=orthogonalEdgeStyle;rounded=0;orthogonalLoop=1;jettySize=auto;html=1;entryX=0.5;entryY=0;entryDx=0;entryDy=0;" edge="1" parent="WIyWlLk6GJQsqaUBKTNV-1" source="soUWdF_z0Q9_2DttLMhe-30" target="soUWdF_z0Q9_2DttLMhe-46">
          <mxGeometry relative="1" as="geometry" />
        </mxCell>
        <mxCell id="soUWdF_z0Q9_2DttLMhe-30" value="是否解决" style="rhombus;whiteSpace=wrap;html=1;shadow=0;fontFamily=Helvetica;fontSize=12;align=center;strokeWidth=1;spacing=6;spacingTop=-4;" vertex="1" parent="WIyWlLk6GJQsqaUBKTNV-1">
          <mxGeometry x="132" y="440" width="123" height="70" as="geometry" />
        </mxCell>
        <mxCell id="soUWdF_z0Q9_2DttLMhe-32" style="edgeStyle=orthogonalEdgeStyle;rounded=0;orthogonalLoop=1;jettySize=auto;html=1;entryX=1.004;entryY=0.625;entryDx=0;entryDy=0;entryPerimeter=0;" edge="1" parent="WIyWlLk6GJQsqaUBKTNV-1" source="soUWdF_z0Q9_2DttLMhe-30" target="soUWdF_z0Q9_2DttLMhe-27">
          <mxGeometry relative="1" as="geometry">
            <Array as="points">
              <mxPoint x="112" y="474" />
            </Array>
          </mxGeometry>
        </mxCell>
        <mxCell id="soUWdF_z0Q9_2DttLMhe-33" value="T" style="edgeLabel;html=1;align=center;verticalAlign=middle;resizable=0;points=[];" vertex="1" connectable="0" parent="soUWdF_z0Q9_2DttLMhe-32">
          <mxGeometry x="-0.3131" relative="1" as="geometry">
            <mxPoint x="-1" y="-10" as="offset" />
          </mxGeometry>
        </mxCell>
        <mxCell id="soUWdF_z0Q9_2DttLMhe-34" value="SQL执行时间长" style="rhombus;whiteSpace=wrap;html=1;shadow=0;fontFamily=Helvetica;fontSize=12;align=center;strokeWidth=1;spacing=6;spacingTop=-4;" vertex="1" parent="WIyWlLk6GJQsqaUBKTNV-1">
          <mxGeometry x="455.5" y="544" width="123" height="70" as="geometry" />
        </mxCell>
        <mxCell id="soUWdF_z0Q9_2DttLMhe-44" style="edgeStyle=orthogonalEdgeStyle;rounded=0;orthogonalLoop=1;jettySize=auto;html=1;entryX=1;entryY=0.5;entryDx=0;entryDy=0;" edge="1" parent="WIyWlLk6GJQsqaUBKTNV-1" source="soUWdF_z0Q9_2DttLMhe-37" target="soUWdF_z0Q9_2DttLMhe-30">
          <mxGeometry relative="1" as="geometry" />
        </mxCell>
        <mxCell id="soUWdF_z0Q9_2DttLMhe-37" value="SQL优化" style="rounded=1;whiteSpace=wrap;html=1;fontSize=12;glass=0;strokeWidth=1;shadow=0;" vertex="1" parent="WIyWlLk6GJQsqaUBKTNV-1">
          <mxGeometry x="294" y="556" width="120" height="40" as="geometry" />
        </mxCell>
        <mxCell id="soUWdF_z0Q9_2DttLMhe-38" style="edgeStyle=orthogonalEdgeStyle;rounded=0;orthogonalLoop=1;jettySize=auto;html=1;entryX=0.994;entryY=0.577;entryDx=0;entryDy=0;entryPerimeter=0;" edge="1" parent="WIyWlLk6GJQsqaUBKTNV-1" source="soUWdF_z0Q9_2DttLMhe-34" target="soUWdF_z0Q9_2DttLMhe-37">
          <mxGeometry relative="1" as="geometry" />
        </mxCell>
        <mxCell id="soUWdF_z0Q9_2DttLMhe-39" value="Y" style="edgeLabel;html=1;align=center;verticalAlign=middle;resizable=0;points=[];" vertex="1" connectable="0" parent="soUWdF_z0Q9_2DttLMhe-38">
          <mxGeometry x="-0.1495" y="1" relative="1" as="geometry">
            <mxPoint x="1" y="-10" as="offset" />
          </mxGeometry>
        </mxCell>
        <mxCell id="soUWdF_z0Q9_2DttLMhe-45" value="&lt;div style=&quot;text-align: left;&quot;&gt;&lt;span style=&quot;background-color: initial;&quot;&gt;&lt;font color=&quot;#ff0000&quot;&gt;1、索引设计优化&lt;/font&gt;&lt;/span&gt;&lt;/div&gt;&lt;div style=&quot;text-align: left;&quot;&gt;&lt;font color=&quot;#ff0000&quot;&gt;2、JOIN表是否过多&lt;/font&gt;&lt;/div&gt;&lt;div style=&quot;text-align: left;&quot;&gt;&lt;font color=&quot;#ff0000&quot;&gt;3、数据表设计优化&lt;/font&gt;&lt;/div&gt;" style="text;html=1;align=center;verticalAlign=middle;resizable=0;points=[];autosize=1;strokeColor=none;fillColor=none;" vertex="1" parent="WIyWlLk6GJQsqaUBKTNV-1">
          <mxGeometry x="297" y="601" width="124" height="55" as="geometry" />
        </mxCell>
        <mxCell id="soUWdF_z0Q9_2DttLMhe-50" style="edgeStyle=orthogonalEdgeStyle;rounded=0;orthogonalLoop=1;jettySize=auto;html=1;entryX=1;entryY=0.5;entryDx=0;entryDy=0;" edge="1" parent="WIyWlLk6GJQsqaUBKTNV-1" source="soUWdF_z0Q9_2DttLMhe-46" target="soUWdF_z0Q9_2DttLMhe-49">
          <mxGeometry relative="1" as="geometry">
            <Array as="points">
              <mxPoint x="112" y="604" />
            </Array>
          </mxGeometry>
        </mxCell>
        <mxCell id="soUWdF_z0Q9_2DttLMhe-51" value="N" style="edgeLabel;html=1;align=center;verticalAlign=middle;resizable=0;points=[];" vertex="1" connectable="0" parent="soUWdF_z0Q9_2DttLMhe-50">
          <mxGeometry x="-0.4091" relative="1" as="geometry">
            <mxPoint x="-7" y="-8" as="offset" />
          </mxGeometry>
        </mxCell>
        <mxCell id="soUWdF_z0Q9_2DttLMhe-53" style="edgeStyle=orthogonalEdgeStyle;rounded=0;orthogonalLoop=1;jettySize=auto;html=1;entryX=0.5;entryY=0;entryDx=0;entryDy=0;" edge="1" parent="WIyWlLk6GJQsqaUBKTNV-1" source="soUWdF_z0Q9_2DttLMhe-46" target="soUWdF_z0Q9_2DttLMhe-52">
          <mxGeometry relative="1" as="geometry" />
        </mxCell>
        <mxCell id="soUWdF_z0Q9_2DttLMhe-46" value="SQL查询到达瓶颈" style="rhombus;whiteSpace=wrap;html=1;shadow=0;fontFamily=Helvetica;fontSize=12;align=center;strokeWidth=1;spacing=6;spacingTop=-4;" vertex="1" parent="WIyWlLk6GJQsqaUBKTNV-1">
          <mxGeometry x="132" y="568" width="123" height="70" as="geometry" />
        </mxCell>
        <mxCell id="soUWdF_z0Q9_2DttLMhe-48" value="Y" style="text;html=1;align=center;verticalAlign=middle;resizable=0;points=[];autosize=1;strokeColor=none;fillColor=none;" vertex="1" parent="WIyWlLk6GJQsqaUBKTNV-1">
          <mxGeometry x="188" y="513" width="26" height="26" as="geometry" />
        </mxCell>
        <mxCell id="soUWdF_z0Q9_2DttLMhe-49" value="重新检查" style="rounded=1;whiteSpace=wrap;html=1;fontSize=12;glass=0;strokeWidth=1;shadow=0;" vertex="1" parent="WIyWlLk6GJQsqaUBKTNV-1">
          <mxGeometry x="22" y="586" width="71" height="34" as="geometry" />
        </mxCell>
        <mxCell id="soUWdF_z0Q9_2DttLMhe-52" value="结构优化" style="rounded=1;whiteSpace=wrap;html=1;fontSize=12;glass=0;strokeWidth=1;shadow=0;" vertex="1" parent="WIyWlLk6GJQsqaUBKTNV-1">
          <mxGeometry x="158" y="689" width="71" height="34" as="geometry" />
        </mxCell>
        <mxCell id="soUWdF_z0Q9_2DttLMhe-55" value="Y" style="text;html=1;align=center;verticalAlign=middle;resizable=0;points=[];autosize=1;strokeColor=none;fillColor=none;" vertex="1" parent="WIyWlLk6GJQsqaUBKTNV-1">
          <mxGeometry x="192" y="641" width="26" height="26" as="geometry" />
        </mxCell>
        <mxCell id="soUWdF_z0Q9_2DttLMhe-56" value="&lt;div style=&quot;text-align: left;&quot;&gt;&lt;span style=&quot;background-color: initial;&quot;&gt;&lt;font color=&quot;#ff0000&quot;&gt;1、读写分离（主从架构）&lt;/font&gt;&lt;/span&gt;&lt;/div&gt;&lt;div style=&quot;text-align: left;&quot;&gt;&lt;span style=&quot;background-color: initial;&quot;&gt;&lt;font color=&quot;#ff0000&quot;&gt;2、分库分表（垂直分库、垂直分表、水平分表）&lt;/font&gt;&lt;/span&gt;&lt;/div&gt;" style="text;html=1;align=center;verticalAlign=middle;resizable=0;points=[];autosize=1;strokeColor=none;fillColor=none;" vertex="1" parent="WIyWlLk6GJQsqaUBKTNV-1">
          <mxGeometry x="163" y="688" width="277" height="41" as="geometry" />
        </mxCell>
      </root>
    </mxGraphModel>
  </diagram>
</mxfile>
